<svg xmlns="http://www.w3.org/2000/svg" viewBox="0 0 565.02 146.43"><defs><style>.cls-1{fill:#006fa7;}.cls-2{fill:#5ac9e4;}</style></defs><g id="Camada_2" data-name="Camada 2"><g id="Camada_1-2" data-name="Camada 1"><g id="Grupo_14" data-name="Grupo 14"><path id="Caminho_7" data-name="Caminho 7" class="cls-1" d="M0,2.5A2.6,2.6,0,0,1,2.5,0H6.58a2.59,2.59,0,0,1,2.5,2.5V41.62a28.3,28.3,0,0,1,14.1-3.43c15.81,0,25.29,12.12,25.29,27.53,0,15.15-10.54,27.8-24,27.8a23.58,23.58,0,0,1-16.2-7L7.51,90.1a2.39,2.39,0,0,1-2.24,2.1H2.5A2.59,2.59,0,0,1,0,89.7ZM23.58,85.22c9.61,0,15.67-9.09,15.67-19.36C39.25,55.32,33.45,47,22,47A28.41,28.41,0,0,0,9.22,50.18V76.53S14.09,85.22,23.58,85.22Z"/><path id="Caminho_8" data-name="Caminho 8" class="cls-1" d="M61.52,9a6.26,6.26,0,1,1,6.32,6.19h-.13A6.21,6.21,0,0,1,61.52,9ZM63.36,42a2.6,2.6,0,0,1,2.5-2.5H70a2.6,2.6,0,0,1,2.5,2.5V89.7A2.6,2.6,0,0,1,70,92.2H65.86a2.6,2.6,0,0,1-2.5-2.5Z"/><path id="Caminho_9" data-name="Caminho 9" class="cls-1" d="M113.64,38.26c14.63,0,26.22,12.64,26.22,27.53,0,15.14-11.59,27.79-26.22,27.79S87.43,80.93,87.43,65.79C87.43,50.9,99,38.26,113.64,38.26Zm0,46.76c9.62,0,17.13-8.56,17.13-19.23,0-10.41-7.51-18.84-17.12-18.84S96.52,55.38,96.52,65.79C96.52,76.46,104,85,113.64,85Z"/><path id="Caminho_10" data-name="Caminho 10" class="cls-1" d="M237.34,38.26c13.83,0,23.84,10.27,23.84,24.1a32.6,32.6,0,0,1-.26,3.56,2.41,2.41,0,0,1-2.37,2.24H220.61c.53,8.82,8.3,17.12,17.65,17.12a25,25,0,0,0,13-4c1.85-1,2.64-1.71,3.69-.26.79,1.05,1.45,2,2.24,3s1.45,2-.52,3.42c-3.17,2.5-10.28,6.06-19.37,6.06-15.94,0-25.82-12.51-25.82-27.66C211.52,51,221.4,38.26,237.34,38.26ZM252.1,60.78c-.4-7.64-6.72-14.49-14.76-14.49a16.38,16.38,0,0,0-16.6,14.49Z"/><path id="Caminho_11" data-name="Caminho 11" class="cls-1" d="M275.61,42.08a2.58,2.58,0,0,1,2.5-2.5h2.5a1.91,1.91,0,0,1,2.11,1.58l1.19,4.08a29.34,29.34,0,0,1,18.44-7c15.28,0,20.41,10,20.41,23.71V89.76a2.59,2.59,0,0,1-2.5,2.5h-4.21a2.59,2.59,0,0,1-2.5-2.5V62c0-10-4.48-14.89-11.86-14.89-9.88,0-17,7.51-17,7.51V89.76a2.6,2.6,0,0,1-2.5,2.5h-4.08a2.59,2.59,0,0,1-2.5-2.5Z"/><path id="Caminho_12" data-name="Caminho 12" class="cls-1" d="M362.89,38.26c13.83,0,23.84,10.27,23.84,24.1a30.3,30.3,0,0,1-.27,3.56,2.41,2.41,0,0,1-2.37,2.24H346.15c.53,8.82,8.3,17.12,17.65,17.12a25.08,25.08,0,0,0,13.05-4c1.84-1,2.63-1.71,3.69-.26.79,1.05,1.44,2,2.23,3s1.45,2-.52,3.42c-3.16,2.5-10.28,6.06-19.37,6.06-15.93,0-25.81-12.51-25.81-27.66C337.07,51,346.94,38.26,362.89,38.26Zm14.75,22.52c-.4-7.64-6.72-14.49-14.75-14.49a16.38,16.38,0,0,0-16.6,14.49Z"/><path id="Caminho_13" data-name="Caminho 13" class="cls-1" d="M404.56,47.46h-6.72a2.5,2.5,0,0,1-2.5-2.5v-2.9a2.43,2.43,0,0,1,2.35-2.5h6.87V24.93a2.6,2.6,0,0,1,2.5-2.5l4.22-.26a2.48,2.48,0,0,1,2.37,2.5V39.56h15.28a2.42,2.42,0,0,1,2.5,2.34V45a2.5,2.5,0,0,1-2.5,2.5H413.66V78.28c0,5.27,1.31,6.33,4.34,6.33,3.3,0,7.9-2,9.62-2.9,2-1.06,2.5-.27,3.16.79l2,3.29c.92,1.58.52,2.37-.93,3.29-1.84,1.19-8.95,4.48-15.14,4.48-10.54,0-12.12-6.32-12.12-14.49Z"/><path id="Caminho_14" data-name="Caminho 14" class="cls-1" d="M444.38,9a6.26,6.26,0,1,1,6.32,6.19h-.13A6.2,6.2,0,0,1,444.38,9ZM446.22,42a2.58,2.58,0,0,1,2.5-2.5h4.08a2.57,2.57,0,0,1,2.5,2.5V89.7a2.59,2.59,0,0,1-2.5,2.5h-4.08a2.6,2.6,0,0,1-2.5-2.5Z"/><path id="Caminho_15" data-name="Caminho 15" class="cls-1" d="M497.31,38.26a22.72,22.72,0,0,1,18.83,9.22,2.56,2.56,0,0,1-.43,3.61l-.09.07-2.5,2.11c-2,1.85-2.64.53-3.82-.52a16.26,16.26,0,0,0-12.12-5.54c-9.88,0-17.52,8.17-17.52,18.71s7.51,19,17.39,19c7.9,0,10.93-4,14-6.85,1.58-1.58,2.5-1.32,4-.27l1.45,1.06a2.64,2.64,0,0,1,1,3.62l0,.06a23.61,23.61,0,0,1-20.15,11.07,27.07,27.07,0,0,1-27-27.15v-.38C470.17,50.51,483,38.26,497.31,38.26Z"/><path id="Caminho_16" data-name="Caminho 16" class="cls-1" d="M529.05,84.89c.53-.79,1.45-2.64,1.85-3.3.66-1,2.11-1.31,3.56-.4,0,0,5.66,4.62,12.38,4.62,5.4,0,8.56-2.77,8.56-6.33,0-4.61-3.95-6.72-11.59-10.54-7-3.42-15-8-15-17,0-5.53,4.48-13.7,16.73-13.7a26.87,26.87,0,0,1,14.62,4.09,3.16,3.16,0,0,1,.79,4.08l-1,2.11a2.89,2.89,0,0,1-3.82,1.18s-5.66-3.16-10.54-3.16c-5.93,0-7.51,3-7.51,5.27,0,4.35,4.35,6.32,9.75,9C556.85,65.12,565,69.21,565,78.69c0,7.64-7.38,14.89-18.18,14.89a26.74,26.74,0,0,1-17.13-5.93A2.62,2.62,0,0,1,529.05,84.89Z"/><path id="Caminho_17" data-name="Caminho 17" class="cls-2" d="M201.64,105.16a9.82,9.82,0,1,0-9.82,9.82h0a9.47,9.47,0,0,0,3-.51,20.28,20.28,0,0,1-4.71,21.13c-7.66,7.67-21,7.67-28.71,0a20.32,20.32,0,0,1,0-28.7l16.08-16.08s0-.09.09-.13l16-16a25.19,25.19,0,1,0-41.14-8.36,10.24,10.24,0,1,0,4.26-2.72,20.25,20.25,0,0,1,4.72-21.08c7.67-7.67,21.05-7.67,28.71,0a20.32,20.32,0,0,1,0,28.7L174,87.31l-.08.13-16,16a25.18,25.18,0,1,0,41.13,8.31A9.78,9.78,0,0,0,201.64,105.16Z"/><g id="Grupo_13" data-name="Grupo 13"><path id="Caminho_18" data-name="Caminho 18" class="cls-1" d="M217.54,116.89a.54.54,0,0,1,.51-.55h6.6a10,10,0,1,1,0,20.09h-6.6a.53.53,0,0,1-.51-.55Zm6.71,16.81a7.32,7.32,0,1,0,0-14.63h-3.79V133.7Z"/><path id="Caminho_19" data-name="Caminho 19" class="cls-1" d="M251.49,116.89a.57.57,0,0,1,.54-.55h1.89a.57.57,0,0,1,.55.55v19a.57.57,0,0,1-.55.55H252a.56.56,0,0,1-.54-.55Z"/><path id="Caminho_20" data-name="Caminho 20" class="cls-1" d="M270,135.68l8.81-19.31a.64.64,0,0,1,.48-.31h.29a.67.67,0,0,1,.49.31l8.75,19.31a.51.51,0,0,1-.21.69.45.45,0,0,1-.28.06h-1.81a.68.68,0,0,1-.66-.43l-1.77-3.93h-9.39c-.57,1.32-1.17,2.61-1.75,3.93a.71.71,0,0,1-.66.43h-1.81a.51.51,0,0,1-.54-.46A.49.49,0,0,1,270,135.68Zm13-6.08-3.53-7.86h-.15l-3.5,7.86Z"/><path id="Caminho_21" data-name="Caminho 21" class="cls-1" d="M313,116.06a10.45,10.45,0,0,1,7,2.67.56.56,0,0,1,0,.78l0,0-1.29,1.35c-.23.25-.46.22-.74,0a7.7,7.7,0,0,0-4.88-2,7.45,7.45,0,0,0,0,14.9,10.17,10.17,0,0,0,4.3-1V129.6h-2.81a.52.52,0,0,1-.54-.5v-1.68a.53.53,0,0,1,.51-.55h5.25a.56.56,0,0,1,.52.55c0,2.3,0,4.65,0,6.94a.73.73,0,0,1-.23.46,14.45,14.45,0,0,1-7.12,1.9,10.33,10.33,0,0,1,0-20.66Z"/><path id="Caminho_22" data-name="Caminho 22" class="cls-1" d="M337.52,116.57a.54.54,0,0,1,.55-.51h.72l12.45,14.4h0V116.89a.54.54,0,0,1,.54-.54h1.84a.56.56,0,0,1,.54.54V136.2a.54.54,0,0,1-.54.52h-.75l-12.45-14.81h0v14a.55.55,0,0,1-.54.55h-1.81a.57.57,0,0,1-.55-.55Z"/><path id="Caminho_23" data-name="Caminho 23" class="cls-1" d="M381.23,116.06a10.33,10.33,0,1,1-10.3,10.35h0a10.3,10.3,0,0,1,10.26-10.35Zm0,17.79a7.46,7.46,0,1,0-7.43-7.49v0A7.46,7.46,0,0,0,381.23,133.85Zm-2.61-19.77-.4-.8a.43.43,0,0,1,.17-.55l4.5-2.61c.17-.11.6-.17.75.09l.66,1.26a.47.47,0,0,1-.12.65l-.05,0-4.82,2.06c-.38.17-.58.12-.69-.14Z"/><path id="Caminho_24" data-name="Caminho 24" class="cls-1" d="M407,133.53c.26-.37.49-.8.75-1.18a.65.65,0,0,1,.87-.29l.1.07c.18.14,2.39,2,4.59,2,2,0,3.24-1.21,3.24-2.67,0-1.73-1.49-2.82-4.33-4s-5.22-2.76-5.22-6.09c0-2.23,1.72-5.3,6.28-5.3a9.67,9.67,0,0,1,5.31,1.69.69.69,0,0,1,.2,1l0,0-.72,1.09a.67.67,0,0,1-.89.34.24.24,0,0,1-.11-.06,8.87,8.87,0,0,0-3.88-1.43c-2.41,0-3.24,1.52-3.24,2.58,0,1.64,1.27,2.64,3.65,3.62,3.33,1.34,6.17,2.92,6.17,6.42,0,3-2.67,5.43-6.4,5.43a9.3,9.3,0,0,1-6.17-2.27.59.59,0,0,1-.25-.81A.41.41,0,0,1,407,133.53Z"/><path id="Caminho_25" data-name="Caminho 25" class="cls-1" d="M439.09,119h-4.68a.55.55,0,0,1-.55-.54h0v-1.61a.56.56,0,0,1,.55-.55h12.33a.55.55,0,0,1,.55.55h0v1.61a.55.55,0,0,1-.55.54h-4.68v16.84a.55.55,0,0,1-.54.55h-1.89a.57.57,0,0,1-.55-.55Z"/><path id="Caminho_26" data-name="Caminho 26" class="cls-1" d="M463,116.89a.57.57,0,0,1,.55-.55h1.89a.57.57,0,0,1,.54.55v19a.56.56,0,0,1-.54.55h-1.89a.57.57,0,0,1-.55-.55Z"/><path id="Caminho_27" data-name="Caminho 27" class="cls-1" d="M493.09,116.06a10,10,0,0,1,7,2.67.52.52,0,0,1,.07.74l0,.06-1.27,1.29c-.2.26-.46.26-.71,0a7.73,7.73,0,0,0-5-1.92,7.45,7.45,0,0,0,0,14.89,7.68,7.68,0,0,0,4.94-1.9.52.52,0,0,1,.68,0l1.32,1.3a.54.54,0,0,1,0,.77h0a9.88,9.88,0,0,1-7,2.78,10.33,10.33,0,1,1,0-20.66Z"/><path id="Caminho_28" data-name="Caminho 28" class="cls-1" d="M525.55,116.06a10.33,10.33,0,1,1-10.3,10.36h0a10.3,10.3,0,0,1,10.26-10.35Zm0,17.79a7.46,7.46,0,1,0-7.43-7.49v0A7.46,7.46,0,0,0,525.55,133.85Z"/><path id="Caminho_29" data-name="Caminho 29" class="cls-1" d="M551.32,133.53c.26-.37.49-.8.75-1.18a.65.65,0,0,1,.87-.29l.11.07c.17.14,2.38,2,4.59,2,2,0,3.24-1.21,3.24-2.67,0-1.73-1.49-2.82-4.33-4s-5.22-2.76-5.22-6.09c0-2.23,1.72-5.3,6.28-5.3a9.72,9.72,0,0,1,5.31,1.69.69.69,0,0,1,.19,1l0,0-.72,1.09a.67.67,0,0,1-.89.34.24.24,0,0,1-.11-.06,8.87,8.87,0,0,0-3.87-1.43c-2.41,0-3.24,1.52-3.24,2.58,0,1.64,1.26,2.64,3.64,3.62,3.33,1.34,6.17,2.92,6.17,6.42,0,3-2.67,5.43-6.4,5.43a9.3,9.3,0,0,1-6.17-2.27.61.61,0,0,1-.25-.81Z"/></g></g></g></g></svg>